<?xml version="1.0" encoding="UTF-8" standalone="no"?>
<!-- Created with Inkscape (http://www.inkscape.org/) -->
<svg xmlns:inkscape="http://www.inkscape.org/namespaces/inkscape" xmlns:rdf="http://www.w3.org/1999/02/22-rdf-syntax-ns#" xmlns="http://www.w3.org/2000/svg" xmlns:xlink="http://www.w3.org/1999/xlink" xmlns:ns1="http://sozi.baierouge.fr" xmlns:cc="http://creativecommons.org/ns#" xmlns:sodipodi="http://sodipodi.sourceforge.net/DTD/sodipodi-0.dtd" xmlns:dc="http://purl.org/dc/elements/1.1/" id="svg2" xml:space="preserve" viewBox="0 0 40.054 41.578" version="1.1" inkscape:version="0.91 r13725">
  <defs id="defs6">
    <linearGradient id="linearGradient24" y2="18.94" gradientUnits="userSpaceOnUse" x2="26.675" gradientTransform="matrix(.75944 .25144 .25144 -.75944 -.00014847 33.261)" y1="18.94" x1="3.5488">
      <stop id="stop26" style="stop-color:#c9ff55" offset="0"/>
      <stop id="stop28" style="stop-color:#b4e74b" offset=".19220"/>
      <stop id="stop30" style="stop-color:#7fab33" offset=".59610"/>
      <stop id="stop32" style="stop-color:#456918" offset="1"/>
    </linearGradient>
    <linearGradient id="linearGradient46" y2="18.67" gradientUnits="userSpaceOnUse" x2="37.85" gradientTransform="matrix(.75936 .25168 .25168 -.75936 .00028705 33.261)" y1="18.67" x1="6.4561">
      <stop id="stop48" style="stop-color:#a1c246" offset="0"/>
      <stop id="stop50" style="stop-color:#89ab3a" offset="0.298"/>
      <stop id="stop52" style="stop-color:#4d711c" offset=".92160"/>
      <stop id="stop54" style="stop-color:#456918" offset="1"/>
    </linearGradient>
    <linearGradient id="linearGradient68" y2="15.3" gradientUnits="userSpaceOnUse" x2="37.961" gradientTransform="matrix(.77248 .20792 .20792 -.77248 .00043775 33.261)" y1="15.3" x1="14.686">
      <stop id="stop70" style="stop-color:#a5d146" offset="0"/>
      <stop id="stop72" style="stop-color:#8fb93b" offset=".2784"/>
      <stop id="stop74" style="stop-color:#577d20" offset=".86270"/>
      <stop id="stop76" style="stop-color:#496e19" offset="1"/>
    </linearGradient>
    <linearGradient id="linearGradient90" y2="25.996" gradientUnits="userSpaceOnUse" x2="26.101" gradientTransform="matrix(.69888 .38928 .38928 -.69888 -.00010451 33.261)" y1="25.996" x1="8.7876">
      <stop id="stop92" style="stop-color:#a5d146" offset="0"/>
      <stop id="stop94" style="stop-color:#8fb93b" offset=".2784"/>
      <stop id="stop96" style="stop-color:#577d20" offset=".86270"/>
      <stop id="stop98" style="stop-color:#496e19" offset="1"/>
    </linearGradient>
    <linearGradient id="linearGradient112" y2="19.188" gradientUnits="userSpaceOnUse" x2="35.706" gradientTransform="matrix(.7724 .2084 .2084 -.7724 -.00024670 33.261)" y1="19.188" x1="14.111">
      <stop id="stop114" style="stop-color:#a5d146" offset="0"/>
      <stop id="stop116" style="stop-color:#8fb93b" offset=".2784"/>
      <stop id="stop118" style="stop-color:#577d20" offset=".86270"/>
      <stop id="stop120" style="stop-color:#496e19" offset="1"/>
    </linearGradient>
    <linearGradient id="linearGradient134" y2="15.776" gradientUnits="userSpaceOnUse" x2="27.031" gradientTransform="matrix(.77248 .208 .208 -.77248 -.00032729 33.261)" y1="15.776" x1="13.956">
      <stop id="stop136" style="stop-color:#a5d146" offset="0"/>
      <stop id="stop138" style="stop-color:#8fb93b" offset=".2784"/>
      <stop id="stop140" style="stop-color:#577d20" offset=".86270"/>
      <stop id="stop142" style="stop-color:#496e19" offset="1"/>
    </linearGradient>
    <linearGradient id="linearGradient156" y2="18.978" gradientUnits="userSpaceOnUse" x2="20.357" gradientTransform="matrix(.76264 .24168 .24168 -.76264 .00029372 33.261)" y1="18.978" x1="13.984">
      <stop id="stop158" style="stop-color:#a5d146" offset="0"/>
      <stop id="stop160" style="stop-color:#8fb93b" offset=".2784"/>
      <stop id="stop162" style="stop-color:#577d20" offset=".86270"/>
      <stop id="stop164" style="stop-color:#496e19" offset="1"/>
    </linearGradient>
    <radialGradient id="radialGradient180" gradientUnits="userSpaceOnUse" cy="2.1675" cx="20.472" gradientTransform="matrix(.4564 -.65704 .65704 .4564 -2.8481 31.283)" r="20.639">
      <stop id="stop182" style="stop-color:#f9584d" offset="0"/>
      <stop id="stop184" style="stop-color:#e14e41" offset=".25490"/>
      <stop id="stop186" style="stop-color:#a53521" offset=".79220"/>
      <stop id="stop188" style="stop-color:#8c2a14" offset="1"/>
    </radialGradient>
    <clipPath id="clipPath196">
      <path id="path198" d="m9.961 9.86c0.051-0.133 0.012-0.531-0.121-1.199-0.051-0.453 0.105-0.734 0.48-0.84 0.16-0.055 0.602-0.215 1.321-0.48 0.531-0.188 1.011-0.309 1.437-0.36 0.535-0.054 0.695-0.215 0.481-0.48-0.184-0.266-0.532-0.469-1.039-0.602-0.481-0.105-0.801-0.277-0.961-0.519-0.161-0.211 0-0.371 0.48-0.481 0.348-0.05 0.469-0.183 0.359-0.398-0.078-0.188-0.332-0.348-0.757-0.481-0.774 0.028-1.907 0.118-3.403 0.282-1.199 0.16-2.957-0.536-5.277-2.082-1.082-0.731-2.07-1.469-2.961-2.219 0.785 0.699 1.48 1.586 2.078 2.66 1.309 2.32 1.442 4.547 0.402 6.68-0.507 1.039-0.839 2.133-1 3.281 0 0.238 0.04 0.387 0.122 0.437 0.078 0.082 0.171 0.043 0.277-0.117 0.535-0.695 0.84-1.066 0.922-1.121 0.293-0.238 0.679-0.265 1.16-0.082 0.371 0.133 0.879 0.414 1.519 0.844 0.508 0.238 0.895 0.078 1.161-0.484 0.027-0.024 0.121-0.426 0.281-1.2 0.078-0.371 0.316-0.613 0.719-0.718 0.238-0.082 0.718-0.082 1.437 0 0.508 0.082 0.801-0.028 0.883-0.321z" inkscape:connector-curvature="0"/>
    </clipPath>
    <clipPath id="clipPath204">
      <path id="path206" d="m-29.952 17.734h24.749v24.749h-24.749v-24.749z" inkscape:connector-curvature="0"/>
    </clipPath>
    <linearGradient id="linearGradient208" y2="27.895" gradientUnits="userSpaceOnUse" x2="-13.263" y1="27.895" x1="-29.262">
      <stop id="stop210" style="stop-color:#ffffff" offset="0"/>
      <stop id="stop212" style="stop-color:#ffffff;stop-opacity:.92160" offset=".4941"/>
      <stop id="stop214" style="stop-color:#ffffff;stop-opacity:.82751" offset="1"/>
    </linearGradient>
    <mask id="mask216">
      <g id="g218">
        <g id="g220" clip-path="url(#clipPath204)">
          <path id="path222" style="fill:url(#linearGradient208)" d="m-29.952 17.734h24.749v24.749h-24.749v-24.749z" inkscape:connector-curvature="0"/>
        </g>
      </g>
    </mask>
    <linearGradient id="linearGradient226" y2="27.895" gradientUnits="userSpaceOnUse" x2="-13.263" y1="27.895" x1="-29.262">
      <stop id="stop228" style="stop-color:#fff7de" offset="0"/>
      <stop id="stop230" style="stop-color:#eadfcc" offset=".4941"/>
      <stop id="stop232" style="stop-color:#d1c3b6" offset="1"/>
    </linearGradient>
    <clipPath id="clipPath240">
      <path id="path242" d="m13 4.2626h7v10h-7v-10z" inkscape:connector-curvature="0"/>
    </clipPath>
    <mask id="mask244">
      <g id="g246">
        <g id="g248" clip-path="url(#clipPath240)">
          <path id="path250" style="fill:#000000;fill-opacity:.16020" d="m13 4.2626h7v10h-7v-10z" inkscape:connector-curvature="0"/>
        </g>
      </g>
    </mask>
    <clipPath id="clipPath256">
      <path id="path258" d="m13 4.2626h7v10h-7v-10z" inkscape:connector-curvature="0"/>
    </clipPath>
    <clipPath id="clipPath260">
      <path id="path262" d="m13 5h7v10h-7v-10z" inkscape:connector-curvature="0"/>
    </clipPath>
    <linearGradient id="linearGradient268" y2="2697.5" gradientUnits="userSpaceOnUse" x2="4291.5" gradientTransform="matrix(.7228 .34288 -.34288 .7228 -2158.8 -3409.7)" y1="2697.5" x1="4283.4">
      <stop id="stop270" style="stop-color:#d1c6c6" offset="0"/>
      <stop id="stop272" style="stop-color:#c9b3af" offset=".94510"/>
      <stop id="stop274" style="stop-color:#c9b2ad" offset="1"/>
    </linearGradient>
    <clipPath id="clipPath302">
      <path id="path304" d="m16 10.263h6v9h-6v-9z" inkscape:connector-curvature="0"/>
    </clipPath>
    <mask id="mask306">
      <g id="g308">
        <g id="g310" clip-path="url(#clipPath302)">
          <path id="path312" style="fill:#000000;fill-opacity:.42970" d="m16 10.263h6v9h-6v-9z" inkscape:connector-curvature="0"/>
        </g>
      </g>
    </mask>
    <clipPath id="clipPath318">
      <path id="path320" d="m16 10.263h6v9h-6v-9z" inkscape:connector-curvature="0"/>
    </clipPath>
    <clipPath id="clipPath322">
      <path id="path324" d="m16 11h6v9h-6v-9z" inkscape:connector-curvature="0"/>
    </clipPath>
    <linearGradient id="linearGradient330" y2="2703.3" gradientUnits="userSpaceOnUse" x2="4308.2" gradientTransform="matrix(.72232 .34392 -.34392 .72232 -2160.9 -3418)" y1="2703.3" x1="4300.7">
      <stop id="stop332" style="stop-color:#d1c6c6" offset="0"/>
      <stop id="stop334" style="stop-color:#c9b3af" offset=".94510"/>
      <stop id="stop336" style="stop-color:#c9b2ad" offset="1"/>
    </linearGradient>
    <clipPath id="clipPath364">
      <path id="path366" d="m3 2.2626h19v15h-19v-15z" inkscape:connector-curvature="0"/>
    </clipPath>
    <mask id="mask368">
      <g id="g370">
        <g id="g372" clip-path="url(#clipPath364)">
          <path id="path374" style="fill:#000000;fill-opacity:.16020" d="m3 2.2626h19v15h-19v-15z" inkscape:connector-curvature="0"/>
        </g>
      </g>
    </mask>
    <clipPath id="clipPath380">
      <path id="path382" d="m3 2.2626h19v15h-19v-15z" inkscape:connector-curvature="0"/>
    </clipPath>
    <clipPath id="clipPath384">
      <path id="path386" d="m3 3h19v15h-19v-15z" inkscape:connector-curvature="0"/>
    </clipPath>
    <clipPath id="clipPath408">
      <path id="path410" d="m14 14.263h4v4h-4v-4z" inkscape:connector-curvature="0"/>
    </clipPath>
    <mask id="mask412">
      <g id="g414">
        <g id="g416" clip-path="url(#clipPath408)">
          <path id="path418" style="fill:#000000;fill-opacity:.19920" d="m14 14.263h4v4h-4v-4z" inkscape:connector-curvature="0"/>
        </g>
      </g>
    </mask>
    <clipPath id="clipPath424">
      <path id="path426" d="m14 14.263h4v4h-4v-4z" inkscape:connector-curvature="0"/>
    </clipPath>
    <clipPath id="clipPath428">
      <path id="path430" d="m14 15h4v4h-4v-4z" inkscape:connector-curvature="0"/>
    </clipPath>
    <linearGradient id="linearGradient436" y2="2702.1" gradientUnits="userSpaceOnUse" x2="4294.5" gradientTransform="matrix(.72272 .34304 -.34304 .72272 -2159.2 -3408.6)" y1="2702.1" x1="4287.4">
      <stop id="stop438" style="stop-color:#d1c6c6" offset="0"/>
      <stop id="stop440" style="stop-color:#c9b3af" offset=".94510"/>
      <stop id="stop442" style="stop-color:#c9b2ad" offset="1"/>
    </linearGradient>
    <clipPath id="clipPath470">
      <path id="path472" d="m16 12.263h2v3h-2v-3z" inkscape:connector-curvature="0"/>
    </clipPath>
    <mask id="mask474">
      <g id="g476">
        <g id="g478" clip-path="url(#clipPath470)">
          <path id="path480" style="fill:#000000;fill-opacity:.19920" d="m16 12.263h2v3h-2v-3z" inkscape:connector-curvature="0"/>
        </g>
      </g>
    </mask>
    <clipPath id="clipPath486">
      <path id="path488" d="m16 12.263h2v3h-2v-3z" inkscape:connector-curvature="0"/>
    </clipPath>
    <clipPath id="clipPath490">
      <path id="path492" d="m16 13h2v3h-2v-3z" inkscape:connector-curvature="0"/>
    </clipPath>
    <linearGradient id="linearGradient498" y2="2701.5" gradientUnits="userSpaceOnUse" x2="4287.4" gradientTransform="matrix(.72288 .34272 -.34272 .72288 -2155.5 -3407.4)" y1="2701.5" x1="4284.2">
      <stop id="stop500" style="stop-color:#d1c6c6" offset="0"/>
      <stop id="stop502" style="stop-color:#c9b3af" offset=".94510"/>
      <stop id="stop504" style="stop-color:#c9b2ad" offset="1"/>
    </linearGradient>
    <clipPath id="clipPath532">
      <path id="path534" d="m9 10.263h4v3h-4v-3z" inkscape:connector-curvature="0"/>
    </clipPath>
    <mask id="mask536">
      <g id="g538">
        <g id="g540" clip-path="url(#clipPath532)">
          <path id="path542" style="fill:#000000;fill-opacity:.19920" d="m9 10.263h4v3h-4v-3z" inkscape:connector-curvature="0"/>
        </g>
      </g>
    </mask>
    <clipPath id="clipPath548">
      <path id="path550" d="m9 10.263h4v3h-4v-3z" inkscape:connector-curvature="0"/>
    </clipPath>
    <clipPath id="clipPath552">
      <path id="path554" d="m9 11h4v3h-4v-3z" inkscape:connector-curvature="0"/>
    </clipPath>
    <linearGradient id="linearGradient560" y2="2707.3" gradientUnits="userSpaceOnUse" x2="4306.3" gradientTransform="matrix(.72232 .34392 -.34392 .72232 -2167.4 -3423.6)" y1="2707.3" x1="4301.7">
      <stop id="stop562" style="stop-color:#d1c6c6" offset="0"/>
      <stop id="stop564" style="stop-color:#c9b3af" offset=".94510"/>
      <stop id="stop566" style="stop-color:#c9b2ad" offset="1"/>
    </linearGradient>
    <clipPath id="clipPath594">
      <path id="path596" d="m2 10.263h12v12h-12v-12z" inkscape:connector-curvature="0"/>
    </clipPath>
    <mask id="mask598">
      <g id="g600">
        <g id="g602" clip-path="url(#clipPath594)">
          <path id="path604" style="fill:#000000;fill-opacity:.12890" d="m2 10.263h12v12h-12v-12z" inkscape:connector-curvature="0"/>
        </g>
      </g>
    </mask>
    <clipPath id="clipPath610">
      <path id="path612" d="m2 10.263h12v12h-12v-12z" inkscape:connector-curvature="0"/>
    </clipPath>
    <clipPath id="clipPath614">
      <path id="path616" d="m2 11h12v12h-12v-12z" inkscape:connector-curvature="0"/>
    </clipPath>
    <clipPath id="clipPath638">
      <path id="path640" d="m4 15.263h4v5h-4v-5z" inkscape:connector-curvature="0"/>
    </clipPath>
    <mask id="mask642">
      <g id="g644">
        <g id="g646" clip-path="url(#clipPath638)">
          <path id="path648" style="fill:#000000;fill-opacity:.21090" d="m4 15.263h4v5h-4v-5z" inkscape:connector-curvature="0"/>
        </g>
      </g>
    </mask>
    <clipPath id="clipPath654">
      <path id="path656" d="m4 15.263h4v5h-4v-5z" inkscape:connector-curvature="0"/>
    </clipPath>
    <clipPath id="clipPath658">
      <path id="path660" d="m4 16h4v5h-4v-5z" inkscape:connector-curvature="0"/>
    </clipPath>
  </defs>
  <g id="g10" transform="matrix(1.25 0 0 -1.25 0 41.578)">
    <g id="g12">
      <g id="g14">
        <g id="g16">
          <g id="g22">
            <path id="path34" style="fill-rule:evenodd;fill:url(#linearGradient24)" d="m21.441 26.181c-1.468-2.719-2.746-4.321-3.839-4.801-0.137-0.051-1.868-1.531-5.204-4.438-2.531-2.215-3.679-2.629-3.437-1.242 0.238 1.336 0.773 2.227 1.598 2.68 0.535 0.293 1.629 0.773 3.281 1.441 1.441 0.746 2.508 1.442 3.199 2.078 0.668 0.641 1.199 1.43 1.602 2.364 0.293 0.718 0.504 1.382 0.64 2 0.133 0.531 0.239 0.89 0.321 1.078 0.718 1.332 1.32 2.172 1.796 2.519 0.375 0.242 0.977 0.336 1.801 0.281 0.348-0.027 0.442-0.199 0.281-0.519-0.292-0.453-0.519-0.816-0.679-1.082-0.563-0.906-1.016-1.691-1.36-2.359z" inkscape:connector-curvature="0"/>
          </g>
        </g>
      </g>
      <g id="g36">
        <g id="g38">
          <g id="g44">
            <path id="path56" style="fill-rule:evenodd;fill:url(#linearGradient46)" d="m30.922 29.462c-0.16-0.668-0.656-0.961-1.481-0.883l0.321-0.438c0-0.402-0.574-0.839-1.723-1.32-1.066-0.48-2.426-1.332-4.078-2.558-1.816-1.336-2.816-2.055-3-2.161-1.656-0.773-3.082-1.453-4.281-2.043-2.239-1.117-3.602-2.023-4.078-2.718-0.375-0.559-0.762-1.145-1.161-1.762-0.16-0.211-0.082 0.109 0.239 0.961 0.586 1.547 1.48 2.707 2.679 3.48 0.696 0.454 1.774 1.016 3.243 1.68 0.984 0.535 1.652 1 2 1.402 0.05 0.051 0.57 0.774 1.558 2.161 0.535 0.746 1.238 1.796 2.121 3.16 0.774 1.09 1.504 1.879 2.199 2.359 1.493 0.984 2.36 1.547 2.598 1.68 1.016 0.558 1.91 0.824 2.684 0.801 0.797-0.055 1.226-0.188 1.277-0.403 0.027-0.105-0.105-0.398-0.398-0.879l-1.243-1.718 0.364-0.043c0.211-0.079 0.265-0.332 0.16-0.758z" inkscape:connector-curvature="0"/>
          </g>
        </g>
      </g>
      <g id="g58">
        <g id="g60">
          <g id="g66">
            <path id="path78" style="fill-rule:evenodd;fill:url(#linearGradient68)" d="m28.68 31.86c0.347 0.215 0.812 0.563 1.398 1.039-0.316-0.636-0.879-1.16-1.68-1.558l-2.558-1.68 0.601 0.359c0.481 0.243 0.879 0.414 1.2 0.52 0.664 0.187 1.371 0.453 2.121 0.801 0.476 0.187 0.933 0.425 1.359 0.718-0.402-0.398-0.922-0.757-1.562-1.078-0.266-0.132-0.731-0.32-1.399-0.558-0.668-0.215-1.215-0.43-1.64-0.641-0.508-0.242-1.067-0.707-1.68-1.402l-0.801-0.957 0.723 0.519c0.531 0.371 0.972 0.637 1.316 0.797 1.176 0.481 2.043 0.668 2.602 0.563 0.586-0.106 1.132-0.039 1.64 0.199-0.293-0.16-0.679-0.293-1.16-0.399-1.015-0.054-1.961-0.253-2.84-0.601-0.558-0.215-1.187-0.625-1.879-1.238l-0.882-0.84 2.48 1.437c0.883 0.242 1.481 0.293 1.801 0.16 0.265-0.054 0.695 0.016 1.281 0.2-0.242-0.106-0.641-0.2-1.199-0.278-1.281-0.242-2.336-0.629-3.16-1.16-1.282-0.828-2.668-2.016-4.16-3.562-0.59-0.614-1.668-1.266-3.243-1.957-0.668-0.289-1.187-0.5-1.558-0.641 0.531 0.215 1.836 0.934 3.918 2.16 0.828 0.504 1.547 1.277 2.16 2.32 0.082 0.133 0.293 0.598 0.641 1.399l0.679 1.441-0.359-1.16c-0.106-0.375-0.145-0.629-0.121-0.762 0.16 0.215 0.347 0.547 0.562 1 0.426 0.934 0.664 1.454 0.719 1.559l0.719 1.242-0.797-2.039 1 1.32c0.293 0.399 0.492 0.786 0.598 1.161l0.921 1-0.519-0.723-0.363-0.758 0.281 0.32c0.238 0.239 0.508 0.438 0.801 0.598l2.039 1.16z" inkscape:connector-curvature="0"/>
          </g>
        </g>
      </g>
      <g id="g80">
        <g id="g82">
          <g id="g88">
            <path id="path100" style="fill-rule:evenodd;fill:url(#linearGradient90)" d="m30.199 24.141c-0.027-0.535-0.426-1-1.199-1.402-0.453-0.238-0.906-0.359-1.359-0.359l-0.52 0.121 0.039-0.602c-0.105-0.371-0.519-0.543-1.238-0.519-0.481 0-1.067 0.109-1.762 0.32-0.48 0.16-0.972 0.16-1.48 0-1.442-0.586-2.707-1.051-3.801-1.398-1.277 0.054-2.211-0.055-2.801-0.321-0.957-0.453-2.426-2.441-4.398-5.961-1.547-2.718-1.508-2.398 0.121 0.961 1.254 1.973 1.906 2.985 1.961 3.039 0.984 1.36 1.89 2.172 2.718 2.442 0.961 0.293 1.758 0.691 2.399 1.199 0.535 0.398 1.293 1.133 2.281 2.199 0.961 1.016 2.199 1.856 3.719 2.52 1.574 0.695 3 1 4.281 0.922 2.16-0.133 2.945-0.801 2.36-2-0.266-0.586-0.708-0.973-1.321-1.161z" inkscape:connector-curvature="0"/>
          </g>
        </g>
      </g>
      <g id="g102">
        <g id="g104">
          <g id="g110">
            <path id="path122" style="fill-rule:evenodd;fill:url(#linearGradient112)" d="m27.121 26.423c-0.266-0.16-0.441-0.348-0.519-0.563-0.055-0.105-0.082-0.199-0.082-0.281l0.878 0.441c0.215 0.106 0.508 0.172 0.883 0.2l2.481 0.441-0.321-0.121c-1.015-0.426-1.761-0.68-2.242-0.758-0.32-0.055-0.691-0.203-1.121-0.441l-0.519-0.36 0.48 0.078c0.293 0.082 0.961 0.043 2-0.117 0.453 0.024 1 0.16 1.641 0.399-0.508-0.399-1.094-0.641-1.758-0.719-0.242-0.027-0.977-0.016-2.203 0.039-0.426 0-0.957-0.121-1.598-0.359l-0.84-0.36h0.399c0.32 0 0.586-0.027 0.8-0.082 0.879-0.215 1.481-0.371 1.801-0.48 0.586-0.211 1.172-0.199 1.758 0.043-0.426-0.215-1.039-0.336-1.84-0.364-0.48-0.023-0.972 0.028-1.48 0.161-0.746 0.214-1.133 0.32-1.16 0.32-0.293 0.027-0.586 0.016-0.879-0.039l-0.321-0.078 0.282-0.082c0.187-0.055 0.558-0.266 1.121-0.641l1.398-0.641-0.441 0.043c-0.184 0.028-0.453 0.106-0.797 0.239-0.481 0.215-0.844 0.359-1.082 0.441-0.426 0.133-0.801 0.172-1.121 0.117-0.266-0.023-0.68-0.144-1.239-0.359l-3.039-1.399c-0.296-0.132-1.027-0.441-2.203-0.921-0.086-0.032-0.164-0.067-0.238-0.098l0.238 0.141c0.59 0.343 1.082 0.597 1.481 0.757 1.121 0.454 2.015 0.922 2.679 1.403 0.403 0.293 1.016 0.636 1.84 1.039 0.348 0.265 0.696 0.758 1.043 1.48 0.239 0.293 0.785 0.68 1.641 1.16-0.16-0.109-0.348-0.242-0.563-0.402-0.398-0.344-0.679-0.664-0.839-0.961-0.161-0.293-0.254-0.531-0.282-0.719-0.023-0.105-0.039-0.187-0.039-0.238l0.199 0.277c0.27 0.375 0.68 0.856 1.243 1.442 0.664 0.64 1.226 1.078 1.679 1.32l-0.32-0.242c-0.398-0.316-0.828-0.785-1.281-1.398l-0.598-0.879 0.52 0.277c0.453 0.215 0.879 0.551 1.281 1 0.426 0.508 0.863 0.867 1.316 1.082 0.535 0.266 1.055 0.465 1.563 0.602l-1.68-0.84z" inkscape:connector-curvature="0"/>
          </g>
        </g>
      </g>
      <g id="g124">
        <g id="g126">
          <g id="g132">
            <path id="path144" style="fill-rule:evenodd;fill:url(#linearGradient134)" d="m20.398 28.54v-0.16c0-0.106 0.028-0.199 0.082-0.278l0.36 0.758 0.582 0.66-0.344-0.738 0.844 0.68c0.398 0.211 0.746 0.32 1.039 0.32l-0.723-0.32c-0.238-0.106-0.519-0.36-0.84-0.762l-0.437-0.559 0.758 0.481 0.84 0.32c-0.614-0.347-1.067-0.679-1.36-1-0.187-0.242-0.32-0.48-0.398-0.722-0.028-0.106-0.039-0.2-0.039-0.278l0.558 0.559c0.188 0.133 0.414 0.226 0.68 0.281-0.238-0.109-0.586-0.426-1.039-0.961-0.242-0.293-0.563-0.801-0.961-1.519-0.535-0.989-0.922-1.668-1.16-2.039-0.426-0.696-1.028-1.297-1.801-1.801-0.773-0.508-1.371-0.696-1.801-0.563-0.211 0.055-0.332 0.094-0.359 0.121-0.051 0.028 0.176 0.055 0.68 0.082 0.8 0.028 1.882 0.864 3.242 2.52 0.558 0.719 0.918 1.371 1.078 1.957 0.133 0.32 0.199 0.496 0.199 0.523 0.055 0.211 0.043 0.586-0.039 1.118-0.027 0.187-0.027 0.347 0 0.48l0.039 0.16 0.121-0.359c0.028-0.133 0.067-0.172 0.121-0.121l-0.039 0.562 0.117 0.598z" inkscape:connector-curvature="0"/>
          </g>
        </g>
      </g>
      <g id="g146">
        <g id="g148">
          <g id="g154">
            <path id="path166" style="fill-rule:evenodd;fill:url(#linearGradient156)" d="m18.559 26.181c0.027-2.559-0.293-4.051-0.957-4.481l-1-0.758 0.558 0.321c0.481 0.211 1 0.304 1.559 0.277 0.695 0 1.269-0.133 1.722-0.399 0.481-0.242 0.731-0.562 0.758-0.96 0-0.348-0.265-0.536-0.801-0.559-0.425 0-0.933 0.094-1.519 0.277-0.426 0.137-0.934 0.16-1.52 0.082-0.558-0.105-0.906-0.242-1.039-0.402-0.132-0.184-0.386 0.32-0.761 1.523 0.695 0.504 1.109 0.825 1.242 0.957 0.32 0.321 0.492 0.68 0.519 1.082 0.028 0.372 0 0.747-0.082 1.122-0.105 0.476-0.16 0.812-0.16 1-0.023 0.531 0.215 1.117 0.723 1.757 0.48 0.614 0.734 0.336 0.758-0.839z" inkscape:connector-curvature="0"/>
          </g>
        </g>
      </g>
      <path id="path168" style="fill-rule:evenodd;fill:#5c8a20" d="m18.078 20.981c0.027-0.293 0.297-0.652 0.801-1.082-0.801 0.082-1.277 0.176-1.438 0.282l-1.839 1.199c0.558 0.242 1.039 0.586 1.437 1.043l0.039-0.242c0.082-0.161 0.215-0.2 0.402-0.122 0.321 0.161 0.586 0.524 0.801 1.082l-0.16-0.558c-0.027-0.348 0.133-0.469 0.481-0.363 0.125 0.039 0.246 0.093 0.359 0.16-0.188-0.297-0.238-0.457-0.16-0.481l0.277-0.078c-0.051-0.133-0.172-0.226-0.359-0.281-0.453-0.051-0.664-0.238-0.641-0.559zm1.121 1.758c0.215 0.242 0.426 0.496 0.641 0.762-0.223-0.527-0.516-0.902-0.879-1.121 0.062 0.105 0.144 0.222 0.238 0.359z" inkscape:connector-curvature="0"/>
      <g id="g170">
        <g id="g172">
          <g id="g178">
            <path id="path190" style="fill-rule:evenodd;fill:url(#radialGradient180)" d="m10.641 23.583c3.281 0.266 6.171-1.082 8.679-4.043 2.535-3.012 3.172-6.066 1.918-9.16-1.25-3.145-3.16-5.117-5.718-5.918-1.598-0.481-4.028-0.535-7.282-0.16-1.199 0.16-2.957-0.536-5.277-2.082-1.082-0.727-2.07-1.469-2.961-2.219 0.785 0.699 1.48 1.586 2.078 2.66 1.309 2.32 1.442 4.547 0.402 6.68-1.546 3.254-1.574 6.32-0.082 9.199 1.575 3.043 4.321 4.723 8.243 5.043z" inkscape:connector-curvature="0"/>
          </g>
        </g>
      </g>
      <g id="g192">
        <g id="g194" clip-path="url(#clipPath196)">
          <g id="g200" transform="matrix(.56752 .56384 .56384 -.56752 -.00035139 33.261)">
            <g id="g224" mask="url(#mask216)">
              <path id="path234" style="fill-rule:evenodd;fill:url(#linearGradient226)" d="m9.961 9.86c0.051-0.133 0.012-0.531-0.121-1.199-0.051-0.453 0.105-0.734 0.48-0.84 0.16-0.055 0.602-0.215 1.321-0.48 0.531-0.188 1.011-0.309 1.437-0.36 0.535-0.054 0.695-0.215 0.481-0.48-0.184-0.266-0.532-0.469-1.039-0.602-0.481-0.105-0.801-0.277-0.961-0.519-0.161-0.211 0-0.371 0.48-0.481 0.348-0.05 0.469-0.183 0.359-0.398-0.078-0.188-0.332-0.348-0.757-0.481-0.774 0.028-1.907 0.118-3.403 0.282-1.199 0.16-2.957-0.536-5.277-2.082-1.082-0.731-2.07-1.469-2.961-2.219 0.785 0.699 1.48 1.586 2.078 2.66 1.309 2.32 1.442 4.547 0.402 6.68-0.507 1.039-0.839 2.133-1 3.281 0 0.238 0.04 0.387 0.122 0.437 0.078 0.082 0.171 0.043 0.277-0.117 0.535-0.695 0.84-1.066 0.922-1.121 0.293-0.238 0.679-0.265 1.16-0.082 0.371 0.133 0.879 0.414 1.519 0.844 0.508 0.238 0.895 0.078 1.161-0.484 0.027-0.024 0.121-0.426 0.281-1.2 0.078-0.371 0.316-0.613 0.719-0.718 0.238-0.082 0.718-0.082 1.437 0 0.508 0.082 0.801-0.028 0.883-0.321z" inkscape:connector-curvature="0"/>
            </g>
          </g>
        </g>
      </g>
      <g id="g236">
        <g id="g252" mask="url(#mask244)">
          <g id="g276">
            <g id="g278" clip-path="url(#clipPath256)">
              <g id="g280" transform="translate(0 -.73742)">
                <g id="g284">
                  <g id="g286" clip-path="url(#clipPath260)">
                    <g id="g288">
                      <g id="g290">
                        <g id="g292">
                          <g id="g294">
                            <path id="path296" style="fill-rule:evenodd;fill:url(#linearGradient268)" d="m19 7.398c-0.695-0.695-1.348-1.199-1.961-1.519 0.402 0.851 0.602 1.758 0.602 2.719 0 1.066-0.282 2.039-0.84 2.922-0.989 1.542-1.961 2.597-2.922 3.156 1.414-0.614 2.601-1.543 3.562-2.797 1.2-1.574 1.719-3.067 1.559-4.481z" inkscape:connector-curvature="0"/>
                          </g>
                        </g>
                      </g>
                    </g>
                  </g>
                </g>
              </g>
            </g>
          </g>
        </g>
      </g>
      <g id="g298">
        <g id="g314" mask="url(#mask306)">
          <g id="g338">
            <g id="g340" clip-path="url(#clipPath318)">
              <g id="g342" transform="translate(0 -.73742)">
                <g id="g346">
                  <g id="g348" clip-path="url(#clipPath322)">
                    <g id="g350">
                      <g id="g352">
                        <g id="g354">
                          <g id="g356">
                            <path id="path358" style="fill-rule:evenodd;fill:url(#linearGradient330)" d="m21.762 14.637c0.105-1.039-0.028-2.106-0.403-3.199-0.214 2.082-0.879 3.734-2 4.96-1.121 1.282-2.105 2.172-2.961 2.68 0.563-0.16 1.204-0.441 1.922-0.84 1.414-0.8 2.465-1.828 3.16-3.078l0.282-0.523z" inkscape:connector-curvature="0"/>
                          </g>
                        </g>
                      </g>
                    </g>
                  </g>
                </g>
              </g>
            </g>
          </g>
        </g>
      </g>
      <g id="g360">
        <g id="g376" mask="url(#mask368)">
          <g id="g388">
            <g id="g390" clip-path="url(#clipPath380)">
              <g id="g392" transform="translate(0 -.73742)">
                <g id="g396">
                  <g id="g398" clip-path="url(#clipPath384)">
                    <g id="g400">
                      <path id="path402" style="fill-rule:evenodd;fill:#000000" d="m20.879 17.879c1.121-2.375 1.242-4.625 0.359-6.762-1.254-3.144-3.16-5.117-5.718-5.918-1.602-0.48-4.028-0.535-7.282-0.16-1.199 0.133-2.863-0.508-5-1.922 0.43 0.348 1.11 0.988 2.043 1.922 0.719 0.691 1.321 1.172 1.797 1.441 2.11 1.118 4.242 1.879 6.402 2.278 1.625 0.293 3.282 1.105 4.961 2.441 2.293 1.785 3.106 4.012 2.438 6.68z" inkscape:connector-curvature="0"/>
                    </g>
                  </g>
                </g>
              </g>
            </g>
          </g>
        </g>
      </g>
      <g id="g404">
        <g id="g420" mask="url(#mask412)">
          <g id="g444">
            <g id="g446" clip-path="url(#clipPath424)">
              <g id="g448" transform="translate(0 -.73742)">
                <g id="g452">
                  <g id="g454" clip-path="url(#clipPath428)">
                    <g id="g456">
                      <g id="g458">
                        <g id="g460">
                          <g id="g462">
                            <path id="path464" style="fill-rule:evenodd;fill:url(#linearGradient436)" d="m15.719 18.039c0.933-0.027 1.535-0.293 1.801-0.801 0.242-0.402 0.242-0.773 0-1.121-0.161-0.238-0.481-0.305-0.961-0.199-0.481 0.133-1.012 0.414-1.598 0.84-0.563 0.398-0.723 0.734-0.481 1 0.215 0.215 0.625 0.304 1.239 0.281z" inkscape:connector-curvature="0"/>
                          </g>
                        </g>
                      </g>
                    </g>
                  </g>
                </g>
              </g>
            </g>
          </g>
        </g>
      </g>
      <g id="g466">
        <g id="g482" mask="url(#mask474)">
          <g id="g506">
            <g id="g508" clip-path="url(#clipPath486)">
              <g id="g510" transform="translate(0 -.73742)">
                <g id="g514">
                  <g id="g516" clip-path="url(#clipPath490)">
                    <g id="g518">
                      <g id="g520">
                        <g id="g522">
                          <g id="g524">
                            <path id="path526" style="fill-rule:evenodd;fill:url(#linearGradient498)" d="m17.441 15.117c0.454-0.293 0.586-0.586 0.399-0.879-0.215-0.265-0.52-0.32-0.918-0.16-0.375 0.16-0.469 0.426-0.281 0.801 0.187 0.375 0.453 0.453 0.8 0.238z" inkscape:connector-curvature="0"/>
                          </g>
                        </g>
                      </g>
                    </g>
                  </g>
                </g>
              </g>
            </g>
          </g>
        </g>
      </g>
      <g id="g528">
        <g id="g544" mask="url(#mask536)">
          <g id="g568">
            <g id="g570" clip-path="url(#clipPath548)">
              <g id="g572" transform="translate(0 -.73742)">
                <g id="g576">
                  <g id="g578" clip-path="url(#clipPath552)">
                    <g id="g580">
                      <g id="g582">
                        <g id="g584">
                          <g id="g586">
                            <path id="path588" style="fill-rule:evenodd;fill:url(#linearGradient560)" d="m10.879 13.277c1.094-0.613 1.469-1.105 1.121-1.48-0.375-0.371-0.855-0.399-1.441-0.078-0.481 0.265-0.719 0.695-0.719 1.281s0.348 0.68 1.039 0.277z" inkscape:connector-curvature="0"/>
                          </g>
                        </g>
                      </g>
                    </g>
                  </g>
                </g>
              </g>
            </g>
          </g>
        </g>
      </g>
      <g id="g590">
        <g id="g606" mask="url(#mask598)">
          <g id="g618">
            <g id="g620" clip-path="url(#clipPath610)">
              <g id="g622" transform="translate(0 -.73742)">
                <g id="g626">
                  <g id="g628" clip-path="url(#clipPath614)">
                    <g id="g630">
                      <path id="path632" style="fill-rule:evenodd;fill:#ffffff" d="m10.762 22.84c0.718-0.137 1.504-0.641 2.359-1.52 1.012-1.043 0.598-2.816-1.242-5.32-1.734-2.375-3.387-3.789-4.961-4.242-1.465-0.399-2.492-0.481-3.078-0.238-0.961 0.398-1.399 1.597-1.32 3.597 0.105 3.281 1.613 5.586 4.519 6.922 1.547 0.719 2.789 0.984 3.723 0.801z" inkscape:connector-curvature="0"/>
                    </g>
                  </g>
                </g>
              </g>
            </g>
          </g>
        </g>
      </g>
      <g id="g634">
        <g id="g650" mask="url(#mask642)">
          <g id="g662">
            <g id="g664" clip-path="url(#clipPath654)">
              <g id="g666" transform="translate(0 -.73742)">
                <g id="g670">
                  <g id="g672" clip-path="url(#clipPath658)">
                    <g id="g674">
                      <path id="path676" style="fill-rule:evenodd;fill:#ffffff" d="m6.641 20.836c1.281 0.32 1.48-0.41 0.597-2.199-0.906-1.785-1.758-2.504-2.558-2.16-0.746 0.32-0.868 1.066-0.36 2.242 0.508 1.172 1.282 1.879 2.321 2.117z" inkscape:connector-curvature="0"/>
                    </g>
                  </g>
                </g>
              </g>
            </g>
          </g>
        </g>
      </g>
    </g>
  </g>
<metadata><rdf:RDF><cc:Work><dc:format>image/svg+xml</dc:format><dc:type rdf:resource="http://purl.org/dc/dcmitype/StillImage"/><cc:license rdf:resource="http://creativecommons.org/licenses/publicdomain/"/><dc:publisher><cc:Agent rdf:about="http://openclipart.org/"><dc:title>Openclipart</dc:title></cc:Agent></dc:publisher></cc:Work><cc:License rdf:about="http://creativecommons.org/licenses/publicdomain/"><cc:permits rdf:resource="http://creativecommons.org/ns#Reproduction"/><cc:permits rdf:resource="http://creativecommons.org/ns#Distribution"/><cc:permits rdf:resource="http://creativecommons.org/ns#DerivativeWorks"/></cc:License></rdf:RDF></metadata></svg>
